<?xml version="1.0" encoding="UTF-8"?>
<svg width="375px" height="350px" viewBox="0 0 375 350" version="1.1" xmlns="http://www.w3.org/2000/svg" xmlns:xlink="http://www.w3.org/1999/xlink">
    <!-- Generator: Sketch 52.6 (67491) - http://www.bohemiancoding.com/sketch -->
    <title>Texas</title>
    <desc>Created with Sketch.</desc>
    <defs>
        <circle id="path-1" cx="35" cy="35" r="35"></circle>
        <circle id="path-3" cx="35" cy="35" r="35"></circle>
    </defs>
    <g id="Texas" stroke="none" stroke-width="1" fill="none" fill-rule="evenodd">
        <g transform="translate(10.000000, 7.000000)">
            <path d="M183.687715,61.8779064 C209.976023,76.9227875 232.815567,85.0122837 253.12698,87.5485744 C268.427354,89.4591356 280.616453,88.2763343 294.373906,84.768624 C295.525256,84.4750667 296.66901,84.1721375 298.092641,83.7865584 C298.293572,83.7321377 300.794807,83.0510212 301.48804,82.8648495 C304.097301,82.1641176 305.81951,81.7474021 307.405014,81.4574428 C311.449056,80.7178622 314.242561,80.9430825 316.5082,82.4523331 C324.760635,87.9496762 334.203512,92.2729489 344.840113,95.420912 L345.556325,95.6328791 L345.556325,147.533198 C361.115578,176.81534 362.099145,202.210626 348.421991,223.590287 L348.238696,223.876806 L347.918716,223.992146 C267.135157,253.111274 238.275165,290.565782 260.677318,336.56213 L261.413735,338.07415 L259.733597,337.999001 C231.034378,336.715357 210.97774,327.560695 199.669515,310.496808 L199.604066,310.398047 L199.563508,310.286726 C180.229717,257.22147 141.278848,210.371973 121.406112,215.406321 C113.112071,217.507446 109.290535,221.27144 106.173653,228.374573 C105.981568,228.812319 105.786814,229.270561 105.558266,229.819779 C105.42036,230.151178 104.917828,231.370356 104.960157,231.267919 C102.152377,238.062754 99.99904,240.946825 94.9537859,242.750925 L94.788301,242.8101 L94.6125562,242.809304 C78.4110707,242.735988 66.817966,233.225914 57.4208881,216.423867 C54.3349028,210.906102 47.5455744,195.681376 46.7153126,194.045892 C31.2458235,176.403927 15.4806688,161.890402 -0.578407935,150.503673 L-3.13921639,148.687925 L97.9503457,148.687925 L97.9503457,-1 L183.687715,-1 L183.687715,-5.46467014e-15 C183.687715,28.607346 183.687715,28.607346 183.687715,46.8202517 C183.687715,53.977747 183.687715,53.977747 183.687715,58.5366323 C183.687715,60.7206187 183.687715,61.4412888 183.687715,61.8779089 Z" id="Path-4" stroke="#C9E7FF" stroke-width="2" fill="#E7F4FF"></path>
            <g id="Austin" transform="translate(203.000000, 162.000000)">
                <mask id="mask-2" fill="white">
                    <use xlink:href="#path-1"></use>
                </mask>
                <circle stroke="#038CFF" stroke-width="2" cx="35" cy="35" r="36"></circle>
                <circle id="Oval" stroke="#038CFF" stroke-width="2" fill="#FFFFFF" mask="url(#mask-2)" cx="35" cy="35" r="36"></circle>
                <g id="Group-25-Copy-2" mask="url(#mask-2)">
                    <g transform="translate(8.641975, 4.320988)">
                        <path d="M11.5802469,39.2345679 L11.5802469,54.479757" id="Line-3-Copy-9" stroke="#038CFF" stroke-width="1.5" fill="none" stroke-linecap="square"></path>
                        <path d="M7.95061728,39.0617284 L43.5901229,39.0617284" id="Line-3-Copy-10" stroke="#038CFF" stroke-width="1.5" fill="none" stroke-linecap="square"></path>
                        <path d="M0,54.617284 L51.8518519,54.617284" id="Line-3-Copy-10" stroke="#038CFF" stroke-width="1.5" fill="none" stroke-linecap="square"></path>
                        <path d="M0,57.2098765 L51.8518519,57.2098765" id="Line-3-Copy-10" stroke="#038CFF" stroke-width="1.5" fill="none" stroke-linecap="square"></path>
                        <path d="M13.1358025,25.2345679 L39.0617284,25.2345679" id="Line-3-Copy-11" stroke="#038CFF" stroke-width="1.5" fill="none" stroke-linecap="square"></path>
                        <g id="Rectangle-7-Copy-2" stroke="none" stroke-width="1" fill="none" fill-rule="evenodd" transform="translate(13.827160, 13.654321)">
                            <polygon id="Rectangle-7" points="0.518518519 0 24.7160494 0 24.7160494 11.5802469 0.518518519 11.5802469"></polygon>
                            <circle id="Mask" stroke="#038CFF" stroke-width="1.5" cx="12.617284" cy="11.7530864" r="11.2932099"></circle>
                        </g>
                        <path d="M40.962963,39.2345679 L40.962963,54.479757" id="Line-3-Copy-12" stroke="#038CFF" stroke-width="1.5" fill="none" stroke-linecap="square"></path>
                        <path d="M33.7037037,39.2345679 L33.7037037,54.479757" id="Line-3-Copy-13" stroke="#038CFF" stroke-width="1.5" fill="none" stroke-linecap="square"></path>
                        <path d="M26.4444444,25.4053765 L26.4444444,54.4804385" id="Line-3-Copy-14" stroke="#038CFF" stroke-width="1.5" fill="none" stroke-linecap="square"></path>
                        <circle id="Oval-3-Copy" stroke="#038CFF" stroke-width="1.5" fill="#FFFFFF" fill-rule="evenodd" cx="26.4444444" cy="47.1851852" r="3.62962963"></circle>
                        <path d="M18.4938272,39.2345679 L18.4938272,54.479757" id="Line-3-Copy-15" stroke="#038CFF" stroke-width="1.5" fill="none" stroke-linecap="square"></path>
                        <path d="M15.7283951,38.7160494 L15.7283951,25.2345679" id="Line-3-Copy-16" stroke="#038CFF" stroke-width="1.5" fill="none" stroke-linecap="square"></path>
                        <path d="M37.1604938,25.5802469 L37.1604938,38.7506168" id="Line-3-Copy-17" stroke="#038CFF" stroke-width="1.5" fill="none" stroke-linecap="square"></path>
                        <path d="M29.382716,7.95061728 L29.382716,14.4320988" id="Line-3-Copy-18" stroke="#038CFF" stroke-width="1.5" fill="none" stroke-linecap="square"></path>
                        <path d="M26.617284,0 L26.617284,4.83950617" id="Line-3-Copy-19" stroke="#038CFF" stroke-width="1.5" fill="none" stroke-linecap="square"></path>
                        <path d="M23.8518519,7.95061728 L23.8518519,14.4320988" id="Line-3-Copy-20" stroke="#038CFF" stroke-width="1.5" fill="none" stroke-linecap="square"></path>
                        <path d="M20.7407407,25.5802469 L20.7407407,39.0617284" id="Line-3-Copy-21" stroke="#038CFF" stroke-width="1.5" fill="none" stroke-linecap="square"></path>
                        <path d="M32.1481481,25.5802469 L32.1481481,39.0617284" id="Line-3-Copy-22" stroke="#038CFF" stroke-width="1.5" fill="none" stroke-linecap="square"></path>
                        <path d="M28.2522945,6.24612171 L29.0022945,6.24612171 L28.2522945,5.49612171 L28.2522945,6.24612171 Z M28.2522945,8.52496771 L28.2522945,10.3356279 L29.5326246,9.80529779 L28.2522945,8.52496771 Z M25.9734485,6.24612171 L24.6931185,4.96579162 L24.1627884,6.24612171 L25.9734485,6.24612171 Z" id="Rectangle-9-Copy-2" stroke="#038CFF" stroke-width="1.5" fill="none" transform="translate(26.582541, 7.915875) rotate(-45.000000) translate(-26.582541, -7.915875) "></path>
                    </g>
                </g>
            </g>
            <g id="Dallas" transform="translate(179.000000, 77.000000)">
                <mask id="mask-4" fill="white">
                    <use xlink:href="#path-3"></use>
                </mask>
                <circle stroke="#038CFF" stroke-width="2" cx="35" cy="35" r="36"></circle>
                <circle id="Oval" stroke="#038CFF" stroke-width="2" fill="#FFFFFF" mask="url(#mask-4)" cx="35" cy="35" r="36"></circle>
                <rect id="Rectangle-9-Copy-3" stroke="#038CFF" stroke-width="1.5" fill="#FFFFFF" mask="url(#mask-4)" x="50.9876543" y="28.5185185" width="11.2345679" height="36.2962963"></rect>
                <rect id="Rectangle-9-Copy-3" stroke="#038CFF" stroke-width="1.5" fill="#FFFFFF" mask="url(#mask-4)" x="44.9382716" y="46.6666667" width="11.2345679" height="22.4691358"></rect>
                <rect id="Rectangle-9-Copy-3" stroke="#038CFF" stroke-width="1.5" fill="#FFFFFF" mask="url(#mask-4)" x="37.1604938" y="52.7160494" width="11.2345679" height="17.2839506"></rect>
                <rect id="Rectangle-9" stroke="#038CFF" stroke-width="1.5" fill="#FFFFFF" mask="url(#mask-4)" x="31.1111111" y="58.7654321" width="9.50617284" height="17.2839506"></rect>
                <rect id="Rectangle-9" stroke="#038CFF" stroke-width="1.5" mask="url(#mask-4)" x="19.8765432" y="29.382716" width="11.2345679" height="46.6666667"></rect>
                <path d="M25.4938272,36.7283951 L25.4938272,73.8989363" id="Line-2" stroke="#038CFF" stroke-width="1.5" stroke-linecap="square" mask="url(#mask-4)"></path>
                <circle id="Mask" stroke="#038CFF" stroke-width="1.5" fill="#FFFFFF" mask="url(#mask-4)" cx="25.4938272" cy="25.4938272" r="11.6666667"></circle>
                <g id="Group-8" mask="url(#mask-4)" fill="#038CFF">
                    <g transform="translate(15.000000, 15.000000)" id="Mask">
                        <circle cx="5.6233226" cy="14.9228395" r="1.05676329"></circle>
                        <circle cx="10.2730811" cy="14.9228395" r="1.05676329"></circle>
                        <circle cx="15.3455448" cy="14.9228395" r="1.05676329"></circle>
                        <circle cx="5.6233226" cy="6.46873323" r="1.05676329"></circle>
                        <circle cx="1.30233494" cy="14.9228395" r="1.05676329"></circle>
                        <circle cx="1.30233494" cy="6.46873323" r="1.05676329"></circle>
                        <circle cx="10.2730811" cy="6.46873323" r="1.05676329"></circle>
                        <circle cx="15.3455448" cy="6.46873323" r="1.05676329"></circle>
                        <circle cx="19.6665325" cy="14.9228395" r="1.05676329"></circle>
                        <circle cx="19.6665325" cy="6.46873323" r="1.05676329"></circle>
                        <circle cx="7.73684917" cy="18.7271873" r="1.05676329"></circle>
                        <circle cx="3.41586151" cy="18.7271873" r="1.05676329"></circle>
                        <circle cx="12.8093129" cy="18.7271873" r="1.05676329"></circle>
                        <circle cx="17.9944981" cy="18.7271873" r="1.05676329"></circle>
                        <circle cx="7.73684917" cy="10.6957864" r="1.05676329"></circle>
                        <circle cx="3.08709071" cy="10.6957864" r="1.05676329"></circle>
                        <circle cx="12.8093129" cy="10.6957864" r="1.05676329"></circle>
                        <circle cx="17.4590714" cy="10.6957864" r="1.05676329"></circle>
                        <circle cx="7.73684917" cy="1.80018787" r="1.05676329"></circle>
                        <circle cx="3.41586151" cy="1.80018787" r="1.05676329"></circle>
                        <circle cx="12.8093129" cy="1.80018787" r="1.05676329"></circle>
                        <circle cx="17.1303006" cy="1.80018787" r="1.05676329"></circle>
                    </g>
                </g>
            </g>
        </g>
    </g>
</svg>