<svg xmlns="http://www.w3.org/2000/svg" width="30" height="26" viewBox="0 0 30 26">
    <g fill="none" fill-rule="nonzero">
        <path fill="#2EB3BD" d="M29.742 16.885l-.958-.503v.964z"/>
        <path fill="#23292E" d="M8.08 16.969l-3.094-2.162c-.456-1.13-1.214-2.134-2.074-2.626C1.52 11.382.39 12.23.39 14.073c0 1.844 1.13 3.986 2.522 4.784.66.378 1.261.386 1.71.095l3.459-1.983zM19.81 23.774l-3.096-2.162c-.455-1.13-1.214-2.133-2.073-2.626-1.393-.798-2.522.05-2.522 1.893 0 1.844 1.129 3.985 2.522 4.783.66.379 1.26.387 1.71.095l3.458-1.983z"/>
        <path fill="#63DBFF" d="M29.292 16.896l-.086.049a7.066 7.066 0 0 0-1.997-3.697l-2.398-2.344-.501-.925a14.212 14.212 0 0 0-5.453-5.576L11.151 0 1.338 5.647 1.163 7.5A10.245 10.245 0 0 0 0 12.241v.336a3.36 3.36 0 0 0 1.693 2.913l16.073 9.23.041.026.075.041.083.048c.03.017.06.032.09.046l.023.01.08.03c.003 0 .006.003.01.004a3.456 3.456 0 0 0 3.072-.181l7.376-4.232A2.746 2.746 0 0 0 30 18.132v-.83a.472.472 0 0 0-.708-.406z"/>
        <path fill="#2EB3BD" d="M29.292 16.896l-8.666 4.972a2.483 2.483 0 0 1-1.322.327 7.067 7.067 0 0 0-1.908-3.3l-2.398-2.344-.5-.926a14.212 14.212 0 0 0-5.454-5.575L1.338 5.647 1.163 7.5A10.248 10.248 0 0 0 0 12.241v.336a3.36 3.36 0 0 0 1.693 2.913l16.073 9.23.041.026.075.041.083.048c.066.038.134.068.203.09a3.455 3.455 0 0 0 3.072-.181l7.376-4.232A2.746 2.746 0 0 0 30 18.132v-.83a.472.472 0 0 0-.708-.406z"/>
        <path fill="#2E373D" d="M17.163 23.77c0 1.843-1.13 2.69-2.522 1.892-1.393-.798-2.522-2.94-2.522-4.783 0-1.844 1.129-2.69 2.522-1.893 1.393.798 2.522 2.94 2.522 4.784z"/>
        <path fill="#CECECE" d="M15.88 23.035c0 .906-.554 1.323-1.24.93-.684-.392-1.24-1.445-1.24-2.351 0-.907.556-1.323 1.24-.93.686.392 1.24 1.445 1.24 2.35z"/>
        <path fill="#627681" d="M15.313 22.71c0 .491-.3.717-.672.504-.372-.212-.673-.783-.673-1.275 0-.492.301-.718.673-.505.371.213.672.784.672 1.276z"/>
        <path fill="#2E373D" d="M5.434 16.964c0 1.844-1.129 2.691-2.522 1.893C1.52 18.059.39 15.917.39 14.073c0-1.843 1.13-2.69 2.522-1.892 1.393.798 2.522 2.94 2.522 4.783z"/>
        <path fill="#CECECE" d="M4.152 16.23c0 .906-.555 1.323-1.24.93-.685-.392-1.24-1.445-1.24-2.352 0-.906.555-1.323 1.24-.93.685.392 1.24 1.445 1.24 2.352z"/>
        <path fill="#627681" d="M3.585 15.904c0 .492-.301.718-.673.505-.371-.213-.672-.784-.672-1.276 0-.491.3-.717.672-.504.372.213.673.784.673 1.275z"/>
        <path fill="#304E75" d="M15.518 16.252l8.82-5.074-1.974-2.918a1.732 1.732 0 0 0-2.302-.525l-5.483 3.18a1.813 1.813 0 0 0-.677 2.457l1.616 2.88z"/>
        <path fill="#FFF" d="M28.794 15.585l-1.46.844a.686.686 0 0 0-.344.594v1.198l2.217-1.27a7.075 7.075 0 0 0-.413-1.366z"/>
        <path fill="#EF9910" d="M28.777 17.197l.43-.246a7.038 7.038 0 0 0-.413-1.366l-.428.247c.18.44.318.897.411 1.365z"/>
        <path fill="#FFF" d="M19.906 22.281l1.619-.927v-.8a.468.468 0 0 0-.702-.402l-1.391.797a.924.924 0 0 1-.918 0l-.94-.54c0 .699.375 1.344.985 1.693l.315.18c.32.183.713.182 1.032 0z"/>
        <path fill="#EF9910" d="M18.906 21.062a.917.917 0 0 1-.392-.113l-.94-.54c0 .699.375 1.344.985 1.693l.315.18c.15.085.315.13.48.135a7.04 7.04 0 0 0-.448-1.355z"/>
        <path fill="#2EB3BD" d="M15.518 16.252l5.305 3.9 6.51-3.723-2.996-5.25z"/>
        <path fill="#243B58" d="M7.742 12.88l6.44 3.61-1.864-2.633a6.623 6.623 0 0 0-2.111-1.916l-2.465-1.413v2.353z"/>
        <path fill="#59718B" d="M23.602 11.046l-1.864-2.631a6.606 6.606 0 0 0-.782-.912 1.727 1.727 0 0 0-.894.232l-1.164.675 4.704 2.636z"/>
        <path fill="#243B58" d="M6.879 10.034L4.14 8.464a1.439 1.439 0 0 0-2.039.68l-.197.465 4.975 2.788v-2.363z"/>
    </g>
</svg>
