<svg xmlns="http://www.w3.org/2000/svg" width="30" height="27" viewBox="0 0 30 27">
    <g fill="none" fill-rule="nonzero">
        <path fill="#23292E" d="M6.306 19.669c.036-.018 3.075-1.776 3.075-1.776l-2.659-1.87c-.39-.978-1.042-1.847-1.78-2.273-1.197-.69-2.166.043-2.166 1.638s.97 3.448 2.166 4.138c.517.299.992.33 1.364.143zM21.644 25.032l-2.658-1.87c-.391-.978-1.043-1.846-1.78-2.272-1.197-.691-2.166.042-2.166 1.637s.97 3.448 2.166 4.139c.566.327 1.082.334 1.468.081l2.97-1.715z"/>
        <path fill="#E7C712" d="M29.998 18.195a.287.287 0 0 0-.14-.22l-.4-.238v-2.352c0-.379-.189-.73-.5-.94-.022-.014-4.709-2.72-4.709-2.72L23.148 7.34a2.117 2.117 0 0 0-.996-1.319L12.215.224a1.236 1.236 0 0 0-1.227-.005L3.234 4.703c-.144.071-.275.17-.386.298L1.373 6.704A1.89 1.89 0 0 0 .912 7.94v2.108L0 10.624v.916c0 .807.429 1.554 1.126 1.96l1.092.638.377-.273.458.615 16.12 9.346c.041.14.134.26.264.335l1.047.605a2.32 2.32 0 0 0 2.32 0l6.154-3.566A2.09 2.09 0 0 0 30 19.392v-1.198h-.002z"/>
        <path fill="#C98000" d="M4.4 4.739l9.938 5.798c.496.287.856.763.995 1.319l1.102 4.383 4.644 2.682c.35.202.565.575.565.98v4.102a.724.724 0 0 1-1.085.627L3.053 14.48.912 11.602v-3.66c0-.455.164-.894.461-1.238L2.848 5a1.236 1.236 0 0 1 1.553-.262z"/>
        <path fill="#2E373D" d="M7.108 17.889c0 1.595-.97 2.328-2.166 1.637-1.197-.69-2.166-2.543-2.166-4.138 0-1.595.97-2.328 2.166-1.638 1.196.691 2.166 2.544 2.166 4.139z"/>
        <path fill="#CECECE" d="M6.007 17.253c0 .784-.477 1.145-1.065.805-.588-.34-1.065-1.25-1.065-2.034 0-.785.477-1.145 1.065-.806.588.34 1.065 1.251 1.065 2.035z"/>
        <path fill="#2E373D" d="M5.52 16.972c0 .425-.26.62-.578.437-.32-.185-.578-.679-.578-1.104 0-.425.259-.621.578-.437.319.184.577.679.577 1.104z"/>
        <path fill="#304E75" d="M16.798 15.61l-.841-3.566a.916.916 0 0 1 .438-1.006l5.788-3.29a.435.435 0 0 1 .637.272l.88 3.517-6.902 4.072z"/>
        <path fill="#243B58" d="M5.826 6.31l-1.052-.615a.9.9 0 0 0-1.074.13l-1.134 1.09A.873.873 0 0 0 2.735 8.3l3.091 1.792V6.31zM6.456 6.678v3.78l3.696 2.141V8.837zM10.781 12.965l4.877 2.826-.89-3.288a2.91 2.91 0 0 0-1.354-1.76L10.78 9.205v3.76z"/>
        <path fill="#59718B" d="M23.213 11.168l-.891-3.289c-.015-.057-.036-.111-.054-.167a.417.417 0 0 0-.085.036l-2.472 1.405 3.502 2.015z"/>
        <path fill="#C98000" d="M2.218 11.924v2.214L1.126 13.5A2.269 2.269 0 0 1 0 11.54v-.916l2.218 1.3z"/>
        <path fill="#FFD613" d="M2.218 11.924l.558-.322-1.864-1.076v-.477L0 10.624z"/>
        <path fill="#EF9910" d="M2.776 11.602v2.132l-.558.404v-2.214z"/>
        <path fill="#FFD613" d="M19.147 21.774l.516-.31 1.03.595c.59.34 1.314.341 1.904.003l6.862-3.935v-.39l.4.238a.29.29 0 0 1-.004.501l-7.182 4.146a2.058 2.058 0 0 1-2.057 0l-1.47-.848z"/>
        <path fill="#EF9910" d="M21.644 22.315v-2.414l-.344-.2a.217.217 0 0 0-.325.189v2.301c.215.082.442.124.67.124z"/>
        <path fill="#C98000" d="M29.998 18.195a.288.288 0 0 1-.143.281l-7.182 4.146a2.057 2.057 0 0 1-2.057 0l-1.47-.848v1.885c0 .207.111.399.29.502l1.048.605a2.32 2.32 0 0 0 2.32 0l6.154-3.566A2.09 2.09 0 0 0 30 19.392v-1.198h-.002z"/>
        <path fill="#CECECE" d="M22.597 22.062l6.862-3.935v-2.742l-7.815 4.516v2.414c.33 0 .658-.084.953-.253z"/>
        <path fill="#EDEDED" d="M23.05 21.52l-.756.436c-.219.126-.396-.007-.396-.299v-1.01c0-.29.177-.629.396-.755l.757-.437c.218-.126.395.008.395.3v1.008c0 .292-.177.63-.395.756zM28.912 18.133l-.757.437c-.219.126-.396-.008-.396-.299v-1.01c0-.29.177-.63.396-.755l.757-.437c.218-.126.395.008.395.299v1.01c0 .29-.177.629-.395.755z"/>
        <g fill="#2E373D">
            <path d="M24.292 20.882l-.143.08c-.128.071-.232-.005-.232-.17v-1.627a.24.24 0 0 1 .125-.208l.142-.08c.129-.07.233.005.233.17v1.627a.24.24 0 0 1-.125.208zM25.284 20.306l-.142.079c-.129.071-.233-.004-.233-.17V18.59a.24.24 0 0 1 .125-.21l.143-.078c.128-.072.232.004.232.17v1.626a.24.24 0 0 1-.125.209zM26.277 19.729l-.143.08c-.128.07-.232-.005-.232-.17v-1.627a.24.24 0 0 1 .125-.209l.142-.08c.128-.07.233.005.233.17v1.627a.24.24 0 0 1-.125.209zM27.269 19.152l-.142.08c-.129.07-.233-.005-.233-.17v-1.627a.24.24 0 0 1 .125-.209l.142-.079c.129-.071.233.004.233.17v1.626a.24.24 0 0 1-.125.209zM19.371 25.028c0 1.595-.97 2.328-2.165 1.638-1.197-.691-2.166-2.544-2.166-4.139 0-1.595.97-2.328 2.166-1.637 1.196.69 2.165 2.543 2.165 4.138z"/>
        </g>
        <path fill="#CECECE" d="M18.27 24.392c0 .785-.476 1.145-1.064.806-.589-.34-1.065-1.251-1.065-2.035 0-.785.476-1.145 1.065-.805.588.34 1.064 1.25 1.064 2.034z"/>
        <path fill="#2E373D" d="M17.783 24.111c0 .425-.258.62-.577.437-.32-.184-.578-.679-.578-1.104 0-.425.258-.62.578-.437.319.185.577.679.577 1.104z"/>
        <path fill="#FFD613" d="M23.917 11.92l-6.915 3.992 6.444 2.947 4.912-2.838z"/>
    </g>
</svg>
