<svg xmlns="http://www.w3.org/2000/svg" width="30" height="23" viewBox="0 0 30 23">
    <g fill="none" fill-rule="nonzero">
        <path fill="#23292E" d="M22.136 20.816l-2.484-1.747c-.365-.913-.974-1.725-1.663-2.123-1.118-.645-2.024.04-2.024 1.53s.906 3.222 2.024 3.867c.53.306 1.011.312 1.372.076l2.775-1.603zM5.974 14.79c.034-.018 2.873-1.66 2.873-1.66l-2.484-1.748C5.998 10.47 5.39 9.657 4.7 9.26c-1.118-.645-2.024.04-2.024 1.53s.906 3.222 2.024 3.867c.483.28.926.309 1.274.133z"/>
        <path fill="#E33400" d="M30 13.602c0-.51-.272-.982-.713-1.238l-4.273-2.478-1.19-4.92a2.129 2.129 0 0 0-1.012-1.347l-4.224-2.417-4.317 2.495L7.868 0 0 4.549v2.116C0 7.905.661 9.05 1.734 9.67l19.242 11.112a2.563 2.563 0 0 0 2.366.103l1.728-.806a21.667 21.667 0 0 0 4.118-2.515 2.102 2.102 0 0 0 .812-1.66v-.278-2.022z"/>
        <path fill="#872E02" d="M24.317 19.245l-2.185.928v-2.022c0-.51-.272-.982-.713-1.238l-4.273-2.478-1.19-4.921a2.128 2.128 0 0 0-1.012-1.347L10.72 5.75v4.988L0 4.548v2.117C0 7.905.661 9.05 1.734 9.67l19.242 11.112a2.563 2.563 0 0 0 2.366.103l1.728-.806a21.667 21.667 0 0 0 4.118-2.515 2.102 2.102 0 0 0 .812-1.66v-.278a20.46 20.46 0 0 1-5.683 3.62z"/>
        <path fill="#ED5100" d="M7.868 0L0 4.549l10.72 6.189V5.75l3.551-2.053z"/>
        <path fill="#E33400" d="M7.851.81L1.41 4.55l9.31 5.341V5.75l2.84-1.641z"/>
        <path fill="#CECECE" d="M24.317 19.245l-2.185.928a.63.63 0 0 0 .833.597s4.85-2.266 6.347-3.699c.428-.41.688-.854.688-1.446a20.46 20.46 0 0 1-5.683 3.62z"/>
        <path fill="#ED5100" d="M29.287 12.364l-4.273-2.478-7.868 4.549 4.273 2.478c.441.256.713.728.713 1.238l1.521-.631A23.448 23.448 0 0 0 30 13.602c0-.51-.272-.982-.713-1.238z"/>
        <path fill="#872E02" d="M7.851.81v3.31l2.87 1.63L13.56 4.11z"/>
        <path fill="#2E373D" d="M6.723 13.126c0 1.49-.906 2.175-2.023 1.53-1.118-.645-2.024-2.376-2.024-3.867 0-1.49.906-2.175 2.024-1.53 1.117.645 2.023 2.377 2.023 3.867z"/>
        <path fill="#CECECE" d="M5.695 12.532c0 .733-.446 1.07-.996.752-.55-.317-.995-1.168-.995-1.9 0-.734.446-1.07.995-.753.55.317.996 1.168.996 1.901z"/>
        <path fill="#627681" d="M5.24 12.27c0 .397-.242.58-.54.407-.299-.172-.54-.633-.54-1.031 0-.397.241-.58.54-.408.298.172.54.634.54 1.031z"/>
        <path fill="#2E373D" d="M20.013 20.813c0 1.49-.907 2.175-2.024 1.53-1.118-.645-2.024-2.377-2.024-3.867 0-1.49.906-2.175 2.024-1.53 1.117.645 2.024 2.376 2.024 3.867z"/>
        <path fill="#CECECE" d="M18.984 20.219c0 .733-.446 1.07-.995.752-.55-.317-.995-1.168-.995-1.901 0-.733.445-1.07.995-.753.55.318.995 1.17.995 1.902z"/>
        <path fill="#627681" d="M18.528 19.956c0 .397-.241.58-.54.408-.297-.172-.54-.634-.54-1.031 0-.398.243-.58.54-.408.299.172.54.633.54 1.031z"/>
        <path fill="#2E373D" d="M22.132 18.151v2.022l2.185-.928A20.46 20.46 0 0 0 30 15.625v-2.023a23.447 23.447 0 0 1-6.346 3.918l-1.522.631z"/>
        <path fill="#EDEDED" d="M22.132 20.173v.095l1.942-.663A14.273 14.273 0 0 0 30 15.727v-.102a20.46 20.46 0 0 1-5.683 3.62l-2.185.928z"/>
        <path fill="#3B2F25" d="M17.422 13.831l-1.17-4.846 7.152-4.129 1.225 4.867z"/>
        <path fill="#24170C" d="M11.135 6.606l3.718 2.146c.415.24.713.64.823 1.107l.98 4.16-5.52-3.188V6.606z"/>
        <path fill="#625951" d="M24.05 9.77l-.98-4.159a1.73 1.73 0 0 0-.182-.457l-3.417 1.973 4.578 2.644z"/>
        <path fill="#EDEDED" d="M23.686 18.442c0 .436-.265.942-.592 1.131-.327.19-.592-.011-.592-.447s.265-.943.592-1.132c.327-.188.592.012.592.448zM29.802 14.953c0 .436-.265.943-.592 1.132-.327.188-.592-.012-.592-.448s.265-.943.592-1.131c.327-.189.592.011.592.447z"/>
        <path fill="#A72700" d="M7.851 4.12L4.275 6.191 1.41 4.55 7.85.81z"/>
    </g>
</svg>
